<?xml version="1.0" standalone="no"?>
<!DOCTYPE svg PUBLIC "-//W3C//DTD SVG 20010904//EN"
 "http://www.w3.org/TR/2001/REC-SVG-20010904/DTD/svg10.dtd">
<svg version="1.0" xmlns="http://www.w3.org/2000/svg"
 width="512.000000pt" height="512.000000pt" viewBox="0 0 512.000000 512.000000"
 preserveAspectRatio="xMidYMid meet">
<metadata>
Created by potrace 1.14, written by Peter Selinger 2001-2017
</metadata>
<g transform="translate(0.000000,512.000000) scale(0.100000,-0.100000)"
fill="#000000" stroke="none">
<path d="M2320 5109 c-491 -47 -981 -246 -1366 -557 -599 -482 -954 -1224
-954 -1992 0 -577 204 -1155 568 -1606 482 -599 1224 -954 1992 -954 577 0
1155 204 1606 568 599 482 954 1224 954 1992 0 577 -204 1155 -568 1606 -433
538 -1071 879 -1767 944 -125 11 -340 11 -465 -1z m935 -1223 c212 -43 362
-142 431 -281 27 -56 29 -67 29 -180 -1 -155 -20 -208 -111 -304 -103 -109
-223 -161 -374 -161 -179 1 -337 65 -461 189 -41 42 -82 87 -91 101 l-15 25
-55 -37 c-180 -119 -333 -379 -394 -670 -24 -112 -23 -342 1 -453 20 -96 69
-207 115 -258 81 -93 233 -117 353 -55 138 70 251 264 264 455 l6 86 146 -6
c377 -16 502 -76 531 -252 17 -104 -17 -243 -86 -357 -47 -77 -184 -221 -273
-287 -131 -97 -292 -168 -471 -207 -69 -16 -125 -19 -305 -18 -208 0 -226 2
-320 28 -337 92 -584 319 -691 634 -84 249 -103 561 -49 796 87 375 343 751
649 953 209 138 475 238 721 272 93 13 362 5 450 -13z"/>
</g>
</svg>
