<?xml version="1.0" standalone="no"?>
<!DOCTYPE svg PUBLIC "-//W3C//DTD SVG 20010904//EN"
 "http://www.w3.org/TR/2001/REC-SVG-20010904/DTD/svg10.dtd">
<svg version="1.0" xmlns="http://www.w3.org/2000/svg"
 width="90.000000pt" height="90.000000pt" viewBox="0 0 90.000000 90.000000"
 preserveAspectRatio="xMidYMid meet">
<metadata>
Created by potrace 1.14, written by Peter Selinger 2001-2017
</metadata>
<g transform="translate(0.000000,90.000000) scale(0.100000,-0.100000)"
fill="#000000" stroke="none">
<path d="M200 760 c-19 -19 -20 -33 -20 -210 l0 -190 -24 0 c-25 0 -39 -20
-30 -42 7 -19 294 -221 319 -225 14 -3 67 29 173 104 83 59 154 114 156 121 9
22 -5 42 -30 42 l-24 0 0 190 c0 177 -1 191 -20 210 -19 19 -33 20 -250 20
-217 0 -231 -1 -250 -20z m278 -108 c2 -13 14 -28 27 -34 19 -8 45 -45 45 -63
0 -12 -40 -3 -62 14 -13 11 -33 18 -44 16 -10 -2 -23 -4 -27 -4 -5 -1 -7 -11
-5 -23 2 -15 13 -25 33 -31 63 -18 100 -42 103 -66 6 -40 -7 -70 -38 -86 -21
-11 -30 -23 -30 -40 0 -20 -5 -23 -27 -22 -21 2 -29 8 -31 25 -2 12 -16 29
-31 37 -26 13 -41 33 -41 56 0 14 32 11 50 -6 33 -30 100 -23 100 10 0 18 -24
31 -73 40 -47 9 -81 48 -72 85 3 14 19 37 35 51 17 14 30 32 30 41 0 20 7 25
33 24 15 -1 23 -8 25 -24z"/>
</g>
</svg>
